<?xml version="1.0" encoding="utf-8"?>
<!-- Generator: Adobe Illustrator 17.1.0, SVG Export Plug-In . SVG Version: 6.00 Build 0)  -->
<!DOCTYPE svg PUBLIC "-//W3C//DTD SVG 1.1//EN" "http://www.w3.org/Graphics/SVG/1.1/DTD/svg11.dtd">
<svg version="1.1" id="Layer_1" xmlns="http://www.w3.org/2000/svg" xmlns:xlink="http://www.w3.org/1999/xlink" x="0px" y="0px"
	 viewBox="0 0 24 24" enable-background="new 0 0 24 24" xml:space="preserve">
<g>
	<circle fill-rule="evenodd" clip-rule="evenodd" fill="#008FD3" cx="12" cy="12" r="12"/>
	<g>
		<path fill-rule="evenodd" clip-rule="evenodd" fill="#FFFFFF" d="M8.6,10.9c0,0-1.1-1.2-1-3.1c0-1.1,0.3-3.2,2.4-3.2
			c2,0,2.3,2.1,2.4,3.1c0,1.6-0.8,3.1-0.8,3.1v1.1c0,0,0.1,0.9,0.8,1.1c0.7,0.1,1.5,0.9,2.1,1.4c0.5,0.5,0.7,1.4,0.6,1.9
			c0,0.5-1.5,1.8-4.9,1.7c-3.4,0-4.7-1.1-4.7-1.8c0-0.5,0-1.4,0.4-1.9c0.6-0.6,1.3-1.1,1.9-1.3c0.6-0.2,0.9-1.1,0.9-1.1V10.9z"/>
		<path fill-rule="evenodd" clip-rule="evenodd" fill="#FFFFFF" d="M13.6,11.2c0,0-0.8-1.1-0.7-2.2c0-0.4,0.3-2,1.8-2
			c1.4,0,1.6,1.5,1.6,2c0,1.1-0.6,2.3-0.6,2.3V12c0,0,0.1,0.3,0.6,0.4c0.5,0.1,2,0.4,2.4,0.7C19,13.5,19,14.7,19,15
			c0,0.4-1,0.8-3.3,0.8c0,0,0.1-1.3-0.5-2.1c-0.8-1.2-1.7-1.4-1.7-1.4L13.6,11.2z"/>
	</g>
</g>
</svg>
